{
  "accessors": [
    {
      "bufferView": 2,
      "componentType": 5126,
      "count": 295,
      "max": [
        1.2586536407470703,
        1.2586536407470703,
        2.6661322116851807
      ],
      "min": [
        -1.2586536407470703,
        -1.2586536407470703,
        -1.0
      ],
      "type": "VEC3"
    },
    {
      "bufferView": 2,
      "byteOffset": 3540,
      "componentType": 5126,
      "count": 295,
      "max": [
        0.9837392568588257,
        0.9837392568588257,
        0.6869417428970337
      ],
      "min": [
        -0.9837392568588257,
        -0.9837392568588257,
        -0.6178380250930786
      ],
      "type": "VEC3"
    },
    {
      "bufferView": 1,
      "componentType": 5126,
      "count": 295,
      "max": [
        1.0,
        1.0000001192092896
      ],
      "min": [
        0.0,
        0.01000000536441803
      ],
      "type": "VEC2"
    },
    {
      "bufferView": 0,
      "componentType": 5125,
      "count": 1140,
      "type": "SCALAR"
    },
    {
      "bufferView": 2,
      "byteOffset": 7080,
      "componentType": 5126,
      "count": 128,
      "max": [
        1.139595866203308,
        1.139595866203308,
        0.6068899035453796
      ],
      "min": [
        -1.139595866203308,
        -1.139595866203308,
        -0.34793463349342346
      ],
      "type": "VEC3"
    },
    {
      "bufferView": 2,
      "byteOffset": 8616,
      "componentType": 5126,
      "count": 128,
      "max": [
        0.9837392568588257,
        0.9837392568588257,
        0.17960917949676514
      ],
      "min": [
        -0.9837392568588257,
        -0.9837392568588257,
        0.1796024590730667
      ],
      "type": "VEC3"
    },
    {
      "bufferView": 1,
      "byteOffset": 2360,
      "componentType": 5126,
      "count": 128,
      "max": [
        1.4209635257720947,
        0.6615636944770813
      ],
      "min": [
        -0.06925705075263977,
        -1.6764912605285645
      ],
      "type": "VEC2"
    },
    {
      "bufferView": 0,
      "byteOffset": 4560,
      "componentType": 5125,
      "count": 384,
      "type": "SCALAR"
    },
    {
      "bufferView": 2,
      "byteOffset": 10152,
      "componentType": 5126,
      "count": 64,
      "max": [
        1.130653977394104,
        1.130653977394104,
        0.5397439002990723
      ],
      "min": [
        -1.130653977394104,
        -1.130653977394104,
        -0.2989610731601715
      ],
      "type": "VEC3"
    },
    {
      "bufferView": 2,
      "byteOffset": 10920,
      "componentType": 5126,
      "count": 64,
      "max": [
        0.9837392568588257,
        0.9837392568588257,
        0.17960917949676514
      ],
      "min": [
        -0.9837392568588257,
        -0.9837392568588257,
        0.1796024590730667
      ],
      "type": "VEC3"
    },
    {
      "bufferView": 1,
      "byteOffset": 3384,
      "componentType": 5126,
      "count": 64,
      "max": [
        1.3977844715118408,
        0.6254394054412842
      ],
      "min": [
        -0.046158481389284134,
        -1.6404736042022705
      ],
      "type": "VEC2"
    },
    {
      "bufferView": 0,
      "byteOffset": 6096,
      "componentType": 5125,
      "count": 192,
      "type": "SCALAR"
    },
    {
      "bufferView": 2,
      "byteOffset": 11688,
      "componentType": 5126,
      "count": 429,
      "max": [
        1.0895328521728516,
        1.089532732963562,
        0.020000720396637917
      ],
      "min": [
        -1.089532732963562,
        -1.089532732963562,
        -0.019999289885163307
      ],
      "type": "VEC3"
    },
    {
      "bufferView": 2,
      "byteOffset": 16836,
      "componentType": 5126,
      "count": 429,
      "max": [
        1.0,
        1.0,
        0.9998698234558105
      ],
      "min": [
        -1.0,
        -1.0,
        -0.9998698234558105
      ],
      "type": "VEC3"
    },
    {
      "bufferView": 1,
      "byteOffset": 3896,
      "componentType": 5126,
      "count": 429,
      "max": [
        1.0,
        1.0
      ],
      "min": [
        0.0,
        0.0
      ],
      "type": "VEC2"
    },
    {
      "bufferView": 0,
      "byteOffset": 6864,
      "componentType": 5125,
      "count": 2304,
      "type": "SCALAR"
    },
    {
      "bufferView": 2,
      "byteOffset": 21984,
      "componentType": 5126,
      "count": 224,
      "max": [
        1.278085470199585,
        1.2780853509902954,
        0.0832829475402832
      ],
      "min": [
        -1.2780853509902954,
        -1.2780853509902954,
        -0.0832860991358757
      ],
      "type": "VEC3"
    },
    {
      "bufferView": 2,
      "byteOffset": 24672,
      "componentType": 5126,
      "count": 224,
      "max": [
        0.9555060863494873,
        0.9555060863494873,
        0.7298503518104553
      ],
      "min": [
        -0.9555060863494873,
        -0.9555060863494873,
        -0.6857142448425293
      ],
      "type": "VEC3"
    },
    {
      "bufferView": 1,
      "byteOffset": 7328,
      "componentType": 5126,
      "count": 224,
      "max": [
        0.49000000953674316,
        0.49000000953674316
      ],
      "min": [
        0.01000000536441803,
        0.01000000536441803
      ],
      "type": "VEC2"
    },
    {
      "bufferView": 0,
      "byteOffset": 16080,
      "componentType": 5125,
      "count": 1332,
      "type": "SCALAR"
    },
    {
      "bufferView": 2,
      "byteOffset": 27360,
      "componentType": 5126,
      "count": 429,
      "max": [
        1.0923104286193848,
        1.0923104286193848,
        0.020000003278255463
      ],
      "min": [
        -1.0923104286193848,
        -1.0923104286193848,
        -0.020000003278255463
      ],
      "type": "VEC3"
    },
    {
      "bufferView": 2,
      "byteOffset": 32508,
      "componentType": 5126,
      "count": 429,
      "max": [
        1.0,
        1.0,
        0.9998698234558105
      ],
      "min": [
        -1.0,
        -1.0,
        -0.9998698234558105
      ],
      "type": "VEC3"
    },
    {
      "bufferView": 1,
      "byteOffset": 9120,
      "componentType": 5126,
      "count": 429,
      "max": [
        1.0,
        1.0
      ],
      "min": [
        0.0,
        0.0
      ],
      "type": "VEC2"
    },
    {
      "bufferView": 0,
      "byteOffset": 21408,
      "componentType": 5125,
      "count": 2304,
      "type": "SCALAR"
    },
    {
      "bufferView": 2,
      "byteOffset": 37656,
      "componentType": 5126,
      "count": 3540,
      "max": [
        54.489830017089844,
        30.987585067749023,
        1.7205842733383179
      ],
      "min": [
        -1.664224624633789,
        -30.745407104492188,
        0.06378955394029617
      ],
      "type": "VEC3"
    },
    {
      "bufferView": 2,
      "byteOffset": 80136,
      "componentType": 5126,
      "count": 3540,
      "max": [
        0.999781608581543,
        0.9998306035995483,
        0.999998927116394
      ],
      "min": [
        -0.9998769760131836,
        -0.9994986057281494,
        -0.9997557401657104
      ],
      "type": "VEC3"
    },
    {
      "bufferView": 1,
      "byteOffset": 12552,
      "componentType": 5126,
      "count": 3540,
      "max": [
        1.0,
        1.0
      ],
      "min": [
        0.0,
        0.01000000536441803
      ],
      "type": "VEC2"
    },
    {
      "bufferView": 0,
      "byteOffset": 30624,
      "componentType": 5125,
      "count": 13680,
      "type": "SCALAR"
    }
  ],
  "asset": {
    "extras": {
      "author": "leman0312 (https://sketchfab.com/leman0312)",
      "license": "CC-BY-4.0 (http://creativecommons.org/licenses/by/4.0/)",
      "source": "https://sketchfab.com/3d-models/gendang-4444e82f7f024040b9ef470cce6e6f66",
      "title": "Gendang"
    },
    "generator": "Sketchfab-15.13.0",
    "version": "2.0"
  },
  "bufferViews": [
    {
      "buffer": 0,
      "byteLength": 85344,
      "name": "floatBufferViews",
      "target": 34963
    },
    {
      "buffer": 0,
      "byteLength": 40872,
      "byteOffset": 85344,
      "byteStride": 8,
      "name": "floatBufferViews",
      "target": 34962
    },
    {
      "buffer": 0,
      "byteLength": 122616,
      "byteOffset": 126216,
      "byteStride": 12,
      "name": "floatBufferViews",
      "target": 34962
    }
  ],
  "buffers": [
    {
      "byteLength": 248832,
      "uri": "scene.bin"
    }
  ],
  "images": [
    {
      "uri": "textures/Material.002_baseColor.jpeg"
    }
  ],
  "materials": [
    {
      "doubleSided": true,
      "name": "Material.001",
      "pbrMetallicRoughness": {
        "baseColorFactor": [
          0.153575,
          0.0298794,
          0.00673911,
          1.0
        ],
        "metallicFactor": 0.0,
        "roughnessFactor": 0.9878120083623431
      }
    },
    {
      "doubleSided": true,
      "name": "Material.005",
      "pbrMetallicRoughness": {
        "baseColorFactor": [
          0.8,
          0.8,
          0.8,
          1.0
        ],
        "metallicFactor": 0.0,
        "roughnessFactor": 0.756988562741172
      }
    },
    {
      "doubleSided": true,
      "name": "Material.002",
      "pbrMetallicRoughness": {
        "baseColorTexture": {
          "index": 0
        },
        "metallicFactor": 0.0,
        "roughnessFactor": 0.8211145618000169
      }
    },
    {
      "doubleSided": true,
      "name": "Material.003",
      "pbrMetallicRoughness": {
        "baseColorFactor": [
          0.0,
          0.0,
          0.0,
          1.0
        ],
        "metallicFactor": 0.0
      }
    },
    {
      "doubleSided": true,
      "name": "Material.004",
      "pbrMetallicRoughness": {
        "baseColorFactor": [
          0.300544,
          0.309469,
          0.327778,
          1.0
        ],
        "metallicFactor": 0.0,
        "roughnessFactor": 0.9309293237262442
      }
    }
  ],
  "meshes": [
    {
      "name": "Cylinder_Material.001_0",
      "primitives": [
        {
          "attributes": {
            "NORMAL": 1,
            "POSITION": 0,
            "TEXCOORD_0": 2
          },
          "indices": 3,
          "material": 0,
          "mode": 4
        }
      ]
    },
    {
      "name": "Cylinder_Material.005_0",
      "primitives": [
        {
          "attributes": {
            "NORMAL": 5,
            "POSITION": 4,
            "TEXCOORD_0": 6
          },
          "indices": 7,
          "material": 1,
          "mode": 4
        }
      ]
    },
    {
      "name": "Cylinder_Material.002_0",
      "primitives": [
        {
          "attributes": {
            "NORMAL": 9,
            "POSITION": 8,
            "TEXCOORD_0": 10
          },
          "indices": 11,
          "material": 2,
          "mode": 4
        }
      ]
    },
    {
      "name": "Cylinder.001_Material.003_0",
      "primitives": [
        {
          "attributes": {
            "NORMAL": 13,
            "POSITION": 12,
            "TEXCOORD_0": 14
          },
          "indices": 15,
          "material": 3,
          "mode": 4
        }
      ]
    },
    {
      "name": "Cylinder.002_Material.004_0",
      "primitives": [
        {
          "attributes": {
            "NORMAL": 17,
            "POSITION": 16,
            "TEXCOORD_0": 18
          },
          "indices": 19,
          "material": 4,
          "mode": 4
        }
      ]
    },
    {
      "name": "Cylinder.003_Material.003_0",
      "primitives": [
        {
          "attributes": {
            "NORMAL": 21,
            "POSITION": 20,
            "TEXCOORD_0": 22
          },
          "indices": 23,
          "material": 3,
          "mode": 4
        }
      ]
    },
    {
      "name": "Cylinder.005_Material.003_0",
      "primitives": [
        {
          "attributes": {
            "NORMAL": 25,
            "POSITION": 24,
            "TEXCOORD_0": 26
          },
          "indices": 27,
          "material": 3,
          "mode": 4
        }
      ]
    }
  ],
  "nodes": [
    {
      "children": [
        1
      ],
      "matrix": [
        1.0,
        0.0,
        0.0,
        0.0,
        0.0,
        2.220446049250313e-16,
        -1.0,
        0.0,
        0.0,
        1.0,
        2.220446049250313e-16,
        0.0,
        0.0,
        0.0,
        0.0,
        1.0
      ],
      "name": "Sketchfab_model"
    },
    {
      "children": [
        2
      ],
      "matrix": [
        0.009999999776482582,
        0.0,
        0.0,
        0.0,
        0.0,
        0.0,
        0.009999999776482582,
        0.0,
        0.0,
        -0.009999999776482582,
        0.0,
        0.0,
        0.0,
        0.0,
        0.0,
        1.0
      ],
      "name": "18570c8d50d0401bb27ec839d9d4a309.fbx"
    },
    {
      "children": [
        3,
        7,
        9,
        11,
        13
      ],
      "name": "RootNode"
    },
    {
      "children": [
        4,
        5,
        6
      ],
      "matrix": [
        23.640583038330078,
        0.0,
        0.0,
        0.0,
        -0.0,
        -3.851539849823742e-06,
        -23.640583038329765,
        0.0,
        0.0,
        27.2512531280514,
        -4.439792673900964e-06,
        0.0,
        -2.9250681400299072,
        26.927968978881836,
        0.0,
        1.0
      ],
      "name": "Cylinder"
    },
    {
      "mesh": 0,
      "name": "Cylinder_Material.001_0"
    },
    {
      "mesh": 1,
      "name": "Cylinder_Material.005_0"
    },
    {
      "mesh": 2,
      "name": "Cylinder_Material.002_0"
    },
    {
      "children": [
        8
      ],
      "matrix": [
        24.21778678894043,
        0.0,
        0.0,
        0.0,
        -0.0,
        -3.945578277020694e-06,
        -24.21778678894011,
        0.0,
        0.0,
        27.9166126251217,
        -4.548193495203466e-06,
        0.0,
        -2.9250681400299072,
        97.6980209350586,
        0.0,
        1.0
      ],
      "name": "Cylinder.001"
    },
    {
      "mesh": 3,
      "name": "Cylinder.001_Material.003_0"
    },
    {
      "children": [
        10
      ],
      "matrix": [
        20.772859573364258,
        0.0,
        0.0,
        0.0,
        -0.0,
        -3.384328394603614e-06,
        -20.772859573363984,
        0.0,
        0.0,
        32.66045761108355,
        -5.321063943245914e-06,
        0.0,
        -2.9250681400299072,
        97.46991729736328,
        0.0,
        1.0
      ],
      "name": "Cylinder.002"
    },
    {
      "mesh": 4,
      "name": "Cylinder.002_Material.004_0"
    },
    {
      "children": [
        12
      ],
      "matrix": [
        21.27214813232422,
        0.0,
        0.0,
        0.0,
        -0.0,
        -3.4656728258419394e-06,
        -21.272148132323938,
        0.0,
        0.0,
        24.521081924438153,
        -3.994991326552274e-06,
        0.0,
        -2.9250681400299072,
        53.15419387817383,
        0.0,
        1.0
      ],
      "name": "Cylinder.003"
    },
    {
      "mesh": 5,
      "name": "Cylinder.003_Material.003_0"
    },
    {
      "children": [
        14
      ],
      "matrix": [
        0.8861187696456909,
        0.0,
        0.0,
        0.0,
        -0.0,
        -1.4436707197252972e-07,
        -0.8861187696456793,
        0.0,
        0.0,
        27.17416572570765,
        -4.4272335419385686e-06,
        0.0,
        -26.856983184814453,
        51.56087875366211,
        0.0,
        1.0
      ],
      "name": "Cylinder.005"
    },
    {
      "mesh": 6,
      "name": "Cylinder.005_Material.003_0"
    }
  ],
  "samplers": [
    {
      "magFilter": 9729,
      "minFilter": 9987,
      "wrapS": 10497,
      "wrapT": 10497
    }
  ],
  "scene": 0,
  "scenes": [
    {
      "name": "Sketchfab_Scene",
      "nodes": [
        0
      ]
    }
  ],
  "textures": [
    {
      "sampler": 0,
      "source": 0
    }
  ]
}
